<?xml version="1.0" encoding="iso-8859-1"?><!DOCTYPE svg PUBLIC "-//W3C//DTD SVG 1.1//EN" "http://www.w3.org/Graphics/SVG/1.1/DTD/svg11.dtd"><svg xmlns="http://www.w3.org/2000/svg" xmlns:xlink="http://www.w3.org/1999/xlink"><symbol viewBox="0 0 612.001 612.001" id="cv"><path d="M565.488 74.616l-2.868-2.833c-63.386-61.375-164.907-60.728-227.507 1.89L45.34 363.532C23.5 385.405 0 425.132 0 460.682c0 33.38 13.027 64.802 36.65 88.407 23.64 23.658 55.08 36.686 88.53 36.686h.018c33.45-.018 64.89-13.045 88.513-36.702l250.152-250.168c17.188-17.188 26.596-41.004 25.756-65.38-.786-22.363-9.932-43.363-25.756-59.153-16.646-16.63-38.75-25.792-62.284-25.792-23.536 0-45.655 9.146-62.25 25.793l-191.574 191.59c-4.826 4.773-7.85 11.383-7.85 18.69 0 14.48 11.732 26.23 26.228 26.23 7.24 0 13.78-2.938 18.517-7.676l.017.018 191.766-191.8c6.854-6.837 16.314-10.194 25.74-10.037 9.04.14 18.026 3.515 24.618 10.09a35.528 35.528 0 0 1 10.405 23.85c.35 10.002-3.357 19.427-10.422 26.49l-250.15 250.168c-13.744 13.744-32 21.315-51.425 21.333h-.018c-19.427 0-37.7-7.59-51.443-21.334-13.71-13.71-21.28-31.93-21.28-51.303 0-16.297 13.744-43.784 29.988-60.063l289.773-289.843c42.455-42.49 111.35-42.788 154.188-1.05l2.78 2.8c41.074 42.944 40.497 111.296-1.73 153.54l-239.833 239.85c-4.81 4.774-7.8 11.35-7.8 18.658 0 14.48 11.734 26.23 26.23 26.23 7.24 0 13.76-2.94 18.518-7.66l.018.02 239.975-239.992c62.947-62.985 63.244-165.206.925-228.557z"/></symbol><symbol viewBox="0 0 235.065 235.065" id="email"><path d="M156.02 58.832h18.024l-12.358 69.772c-1.376 8.066-1.42 13.908-.13 17.514 1.288 3.595 4.165 5.4 8.625 5.4s8.84-1.027 13.13-3.088c4.292-2.06 8.15-5.232 11.586-9.524s6.222-9.692 8.37-16.214c2.144-6.52 3.22-14.245 3.22-23.176 0-12.874-2.153-23.86-6.44-32.955-4.29-9.093-10.17-16.61-17.632-22.528-7.468-5.93-16.268-10.258-26.396-13.005s-21.022-4.128-32.7-4.128c-13.386 0-25.83 2.403-37.328 7.21-11.498 4.815-21.495 11.423-29.996 19.826-8.496 8.414-15.148 18.41-19.95 30.002-4.808 11.58-7.207 24.15-7.207 37.714 0 13.39 2.012 25.4 6.043 36.045 4.036 10.65 9.915 19.695 17.64 27.168 7.722 7.462 17.29 13.212 28.7 17.242 11.412 4.03 24.504 6.048 39.27 6.048 4.972 0 10.634-.598 16.987-1.795 6.353-1.207 12.102-3.008 17.253-5.412l7.98 24.72c-7.04 3.433-14.202 5.832-21.496 7.202-7.3 1.376-15.665 2.067-25.1 2.067-16.65 0-32.06-2.41-46.217-7.207-14.163-4.814-26.428-11.933-36.812-21.37-10.39-9.442-18.498-21.158-24.34-35.147C2.915 157.23 0 141.05 0 122.686c0-18.71 3.345-35.62 10.046-50.725C16.736 56.87 25.75 43.99 37.078 33.34c11.33-10.64 24.46-18.83 39.39-24.59 14.93-5.744 30.72-8.62 47.37-8.62 15.79 0 30.47 2.278 44.028 6.82 13.554 4.553 25.313 11.068 35.267 19.57 9.954 8.496 17.77 18.884 23.437 31.16 5.662 12.265 8.496 26.216 8.496 41.832 0 10.987-1.925 21.278-5.793 30.9-3.862 9.615-9.18 17.937-15.958 24.975-6.788 7.033-14.68 12.608-23.687 16.73-9.007 4.118-18.667 6.18-28.963 6.18-4.297 0-8.278-.468-11.977-1.414-3.688-.945-6.777-2.534-9.263-4.764-2.49-2.235-4.335-5.15-5.537-8.757-1.202-3.602-1.55-8.062-1.028-13.387h-1.028a136.367 136.367 0 0 1-8.365 10.552 62.222 62.222 0 0 1-9.915 9.143c-3.6 2.665-7.555 4.765-11.84 6.31-4.298 1.538-9.014 2.316-14.164 2.316-4.117 0-8.066-.903-11.84-2.698-3.78-1.806-7.045-4.34-9.786-7.598-2.752-3.258-4.94-7.207-6.565-11.846-1.637-4.634-2.448-9.785-2.448-15.447 0-10.64 1.712-20.984 5.144-31.024 3.432-10.045 8.115-18.922 14.033-26.645s12.787-13.94 20.598-18.667c7.81-4.716 16.094-7.076 24.84-7.076 6.005 0 11.074.897 15.19 2.698a45.74 45.74 0 0 1 11.33 7.087l7.974-8.245zm-16.225 31.16c-2.23-1.893-4.547-3.35-6.946-4.378-2.405-1.033-5.407-1.545-9.014-1.545-5.145 0-9.91 1.457-14.283 4.377-4.378 2.915-8.16 6.685-11.33 11.324-3.182 4.635-5.624 9.835-7.343 15.573-1.713 5.76-2.578 11.38-2.578 16.867 0 5.667 1.16 10.307 3.48 13.913 2.318 3.595 6.305 5.4 11.967 5.4 2.403 0 4.98-.728 7.722-2.18 2.752-1.463 5.406-3.394 7.99-5.798 2.573-2.4 5.058-5.15 7.462-8.235a74.84 74.84 0 0 0 6.44-9.785l6.43-35.533z"/></symbol><symbol viewBox="0 0 478.613 478.613" id="github"><path d="M427.5 200.695c1.777-11.238 2.885-23.56 3.164-37.377-.107-59.246-28.468-80.21-33.925-90.038 8.036-44.89-1.332-65.31-5.69-72.3-16.07-5.703-55.91 14.723-77.677 29.102-35.49-10.39-110.494-9.375-138.62 2.69C122.855-4.39 95.407 1.276 95.407 1.276s-17.745 31.82-4.69 78.37c-17.076 21.76-29.803 37.144-29.803 77.95 0 9.773.607 19.008 1.637 27.893 14.705 77.318 75.97 110.674 136.15 116.426-9.056 6.88-19.928 19.903-21.432 34.992-11.38 7.357-34.268 9.79-52.067 4.193-24.94-7.88-34.486-57.265-71.833-50.22-8.08 1.512-6.475 6.842.523 11.386 11.378 7.38 22.094 16.554 30.354 36.185 6.344 15.073 19.687 41.983 61.873 41.983 16.747 0 28.477-1.98 28.477-1.98s.32 38.407.32 53.386c0 17.237-23.265 22.077-23.265 30.347 0 3.29 7.7 3.6 13.888 3.6 12.23 0 37.673-10.185 37.673-28.102 0-14.237.227-62.08.227-70.46 0-18.307 9.81-24.136 9.81-24.136s1.202 97.726-2.36 110.828c-4.177 15.408-11.744 13.22-11.744 20.076 0 10.233 30.59 2.502 40.735-19.897 7.85-17.495 4.335-113.33 4.335-113.33l8.183-.18s.094 43.893-.188 63.945c-.295 20.77-2.438 47.025 9.898 59.417 8.097 8.15 32.903 22.45 32.903 9.38 0-7.573-17.37-13.832-17.37-34.352V344.45c10.553 0 12.734 31.072 12.734 31.072l3.804 57.727s-2.526 21.064 22.756 29.855c8.925 3.126 28.018 3.976 28.913-1.27.897-5.26-22.99-13.04-23.217-29.343-.123-9.93.445-15.742.445-58.934 0-43.168-5.8-59.137-26.007-71.863 58.6-6.014 119.468-32.185 130.433-101z"/></symbol><symbol viewBox="0 0 612 612" id="twitter"><path d="M612 116.258a250.714 250.714 0 0 1-72.088 19.772c25.93-15.527 45.777-40.155 55.184-69.41-24.322 14.378-51.17 24.82-79.775 30.48-22.906-24.438-55.49-39.66-91.63-39.66-69.333 0-125.55 56.218-125.55 125.514 0 9.828 1.11 19.427 3.25 28.606-104.325-5.24-196.834-55.223-258.75-131.174-10.822 18.51-16.98 40.078-16.98 63.1 0 43.56 22.182 81.994 55.836 104.48A125.556 125.556 0 0 1 24.63 232.21v1.568c0 60.806 43.29 111.554 100.692 123.104-10.517 2.83-21.607 4.398-33.08 4.398-8.107 0-15.947-.803-23.634-2.333 15.985 49.907 62.336 86.2 117.253 87.194-42.946 33.655-97.098 53.656-155.915 53.656-10.134 0-20.116-.612-29.944-1.72 55.568 35.68 121.537 56.484 192.44 56.484 230.947 0 357.187-191.29 357.187-357.188l-.42-16.253C573.87 163.525 595.21 141.42 612 116.257z"/></symbol></svg>