<?xml version="1.0" encoding="iso-8859-1"?><!DOCTYPE svg PUBLIC "-//W3C//DTD SVG 1.1//EN" "http://www.w3.org/Graphics/SVG/1.1/DTD/svg11.dtd"><svg xmlns="http://www.w3.org/2000/svg" xmlns:xlink="http://www.w3.org/1999/xlink"><symbol viewBox="0 0 612.001 612.001" id="cv"><path d="M565.488 74.616l-2.868-2.833c-63.386-61.375-164.907-60.728-227.507 1.889L45.34 363.532C23.501 385.406 0 425.134 0 460.683c0 33.38 13.027 64.802 36.65 88.407 23.641 23.658 55.08 36.686 88.53 36.686h.018c33.45-.018 64.89-13.045 88.513-36.702l250.151-250.168c17.188-17.188 26.596-41.004 25.756-65.379-.786-22.364-9.932-43.364-25.756-59.154-16.646-16.629-38.749-25.792-62.284-25.792-23.536 0-45.655 9.145-62.249 25.792l-191.575 191.59c-4.826 4.773-7.851 11.383-7.851 18.691 0 14.479 11.733 26.229 26.229 26.229 7.239 0 13.779-2.938 18.517-7.676l.018.018 191.766-191.8c6.854-6.837 16.314-10.194 25.739-10.037 9.04.14 18.027 3.515 24.619 10.089a35.528 35.528 0 0 1 10.404 23.851c.35 10.002-3.357 19.427-10.422 26.491l-250.15 250.167c-13.744 13.744-31.999 21.315-51.425 21.333h-.018c-19.427 0-37.699-7.589-51.443-21.333-13.709-13.709-21.28-31.929-21.28-51.303 0-16.297 13.744-43.784 29.988-60.063l289.773-289.843c42.455-42.49 111.349-42.788 154.188-1.049l2.78 2.798c41.074 42.945 40.497 111.297-1.73 153.542l-239.833 239.85c-4.809 4.773-7.799 11.349-7.799 18.657 0 14.479 11.733 26.229 26.229 26.229 7.24 0 13.761-2.938 18.518-7.658l.017.018 239.975-239.991c62.947-62.985 63.244-165.206.925-228.557z"/></symbol><symbol viewBox="0 0 235.065 235.065" id="email"><path d="M156.019 58.832h18.025l-12.358 69.772c-1.376 8.066-1.42 13.908-.131 17.514 1.289 3.595 4.166 5.401 8.626 5.401s8.838-1.028 13.13-3.089c4.291-2.061 8.148-5.232 11.585-9.524s6.222-9.692 8.371-16.214c2.143-6.521 3.22-14.245 3.22-23.176 0-12.874-2.154-23.861-6.44-32.955-4.291-9.094-10.171-16.611-17.633-22.529-7.468-5.929-16.268-10.258-26.396-13.005s-21.022-4.128-32.7-4.128c-13.386 0-25.83 2.404-37.328 7.212-11.498 4.814-21.495 11.422-29.996 19.825-8.496 8.414-15.148 18.411-19.95 30.002-4.808 11.58-7.207 24.149-7.207 37.714 0 13.391 2.012 25.4 6.043 36.045 4.036 10.65 9.915 19.695 17.639 27.168 7.723 7.462 17.291 13.212 28.702 17.242 11.411 4.03 24.503 6.048 39.27 6.048 4.971 0 10.633-.598 16.986-1.795 6.353-1.207 12.102-3.008 17.253-5.412l7.979 24.721c-7.038 3.432-14.201 5.831-21.495 7.201-7.299 1.376-15.665 2.067-25.101 2.067-16.649 0-32.058-2.41-46.216-7.207-14.163-4.814-26.428-11.933-36.812-21.37-10.389-9.442-18.498-21.158-24.34-35.147C2.915 157.23 0 141.049 0 122.686c0-18.71 3.345-35.62 10.046-50.725 6.69-15.093 15.703-27.973 27.032-38.623 11.33-10.639 24.459-18.83 39.39-24.59 14.93-5.744 30.72-8.621 47.369-8.621 15.79 0 30.47 2.279 44.029 6.821 13.554 4.553 25.313 11.068 35.267 19.57 9.954 8.496 17.769 18.884 23.437 31.16 5.662 12.265 8.496 26.216 8.496 41.832 0 10.987-1.925 21.278-5.793 30.899-3.862 9.616-9.181 17.938-15.958 24.976-6.788 7.033-14.68 12.608-23.687 16.731-9.007 4.117-18.667 6.179-28.963 6.179-4.297 0-8.278-.468-11.977-1.414-3.688-.946-6.777-2.535-9.263-4.765-2.491-2.235-4.335-5.151-5.537-8.757-1.202-3.601-1.55-8.061-1.028-13.386h-1.028a136.367 136.367 0 0 1-8.365 10.552 62.222 62.222 0 0 1-9.915 9.143c-3.601 2.665-7.555 4.765-11.841 6.309-4.297 1.539-9.013 2.317-14.163 2.317-4.117 0-8.066-.903-11.841-2.698-3.78-1.806-7.044-4.34-9.785-7.598-2.752-3.258-4.939-7.207-6.565-11.846-1.637-4.634-2.448-9.785-2.448-15.447 0-10.639 1.713-20.984 5.145-31.024 3.432-10.046 8.115-18.923 14.033-26.646s12.787-13.94 20.598-18.667c7.811-4.716 16.094-7.076 24.84-7.076 6.005 0 11.074.897 15.191 2.698a45.74 45.74 0 0 1 11.33 7.087l7.973-8.245zm-16.224 31.16c-2.23-1.893-4.547-3.35-6.946-4.378-2.404-1.033-5.406-1.545-9.013-1.545-5.145 0-9.91 1.458-14.283 4.378-4.378 2.915-8.159 6.685-11.33 11.324-3.182 4.634-5.624 9.834-7.343 15.572-1.713 5.76-2.578 11.379-2.578 16.867 0 5.667 1.159 10.307 3.481 13.913 2.317 3.595 6.304 5.401 11.966 5.401 2.404 0 4.982-.729 7.723-2.181 2.752-1.463 5.406-3.394 7.99-5.798 2.573-2.399 5.058-5.151 7.462-8.235a74.839 74.839 0 0 0 6.44-9.785l6.431-35.533z"/></symbol><symbol viewBox="0 0 478.613 478.613" id="github"><path d="M427.501 200.695c1.776-11.238 2.884-23.56 3.163-37.377-.107-59.246-28.468-80.21-33.925-90.038 8.037-44.89-1.331-65.309-5.688-72.299-16.07-5.704-55.91 14.722-77.678 29.101-35.491-10.389-110.494-9.375-138.621 2.689C122.856-4.389 95.408 1.277 95.408 1.277s-17.745 31.82-4.691 78.371c-17.075 21.759-29.802 37.143-29.802 77.949 0 9.773.607 19.008 1.637 27.893 14.705 77.318 75.97 110.674 136.15 116.426-9.056 6.881-19.928 19.903-21.432 34.992-11.379 7.357-34.268 9.789-52.067 4.193-24.939-7.88-34.486-57.266-71.833-50.221-8.081 1.512-6.475 6.842.523 11.386 11.378 7.38 22.094 16.554 30.354 36.185 6.344 15.072 19.687 41.982 61.873 41.982 16.747 0 28.477-1.979 28.477-1.979s.319 38.406.319 53.385c0 17.238-23.264 22.078-23.264 30.348 0 3.289 7.7 3.601 13.888 3.601 12.229 0 37.673-10.186 37.673-28.103 0-14.237.227-62.081.227-70.46 0-18.307 9.811-24.136 9.811-24.136s1.201 97.727-2.361 110.829c-4.177 15.408-11.744 13.219-11.744 20.076 0 10.233 30.589 2.502 40.735-19.897 7.849-17.495 4.334-113.331 4.334-113.331l8.183-.178s.094 43.892-.188 63.944c-.295 20.769-2.438 47.025 9.898 59.417 8.097 8.15 32.903 22.451 32.903 9.382 0-7.574-17.371-13.833-17.371-34.353V344.45c10.553 0 12.734 31.072 12.734 31.072l3.804 57.727s-2.526 21.065 22.756 29.856c8.925 3.126 28.018 3.976 28.913-1.271.897-5.26-22.99-13.038-23.217-29.342-.123-9.93.445-15.742.445-58.934 0-43.168-5.799-59.137-26.007-71.863 58.601-6.014 119.468-32.185 130.433-101z"/></symbol><symbol viewBox="0 0 189.473 189.473" id="telegram"><path d="M152.531 179.476c-1.48 0-2.95-.438-4.211-1.293l-47.641-32.316-25.552 18.386a7.502 7.502 0 0 1-11.633-4.174l-12.83-48.622L4.821 93.928a7.501 7.501 0 0 1-.094-13.975l174.312-69.36a7.503 7.503 0 0 1 10.282 8.408L159.898 173.38a7.499 7.499 0 0 1-7.367 6.096zm-47.669-48.897l42.437 28.785L170.193 39.24l-82.687 79.566 17.156 11.638c.069.043.135.089.2.135zm-35.327-6.401l5.682 21.53 12.242-8.809-16.03-10.874a7.478 7.478 0 0 1-1.894-1.847zM28.136 86.782l31.478 12.035a7.5 7.5 0 0 1 4.573 5.092l3.992 15.129a7.504 7.504 0 0 1 2.259-4.624L149.227 38.6 28.136 86.782z"/></symbol><symbol viewBox="0 0 612 612" id="twitter"><path d="M612 116.258a250.714 250.714 0 0 1-72.088 19.772c25.929-15.527 45.777-40.155 55.184-69.411-24.322 14.379-51.169 24.82-79.775 30.48-22.907-24.437-55.49-39.658-91.63-39.658-69.334 0-125.551 56.217-125.551 125.513 0 9.828 1.109 19.427 3.251 28.606-104.326-5.24-196.835-55.223-258.75-131.174-10.823 18.51-16.98 40.078-16.98 63.101 0 43.559 22.181 81.993 55.835 104.479a125.556 125.556 0 0 1-56.867-15.756v1.568c0 60.806 43.291 111.554 100.693 123.104-10.517 2.83-21.607 4.398-33.08 4.398-8.107 0-15.947-.803-23.634-2.333 15.985 49.907 62.336 86.199 117.253 87.194-42.947 33.654-97.099 53.655-155.916 53.655-10.134 0-20.116-.612-29.944-1.721 55.567 35.681 121.536 56.485 192.438 56.485 230.948 0 357.188-191.291 357.188-357.188l-.421-16.253c24.666-17.593 46.005-39.697 62.794-64.861z"/></symbol><symbol viewBox="0 0 510 510" id="work"><path d="M459 114.75H357v-51l-51-51H204l-51 51v51H51c-28.05 0-51 22.95-51 51v280.5c0 28.05 22.95 51 51 51h408c28.05 0 51-22.95 51-51v-280.5c0-28.05-22.95-51-51-51zm-153 0H204v-51h102v51z"/></symbol></svg>